<?xml version="1.0" encoding="utf-8"?>
<!-- Generator: Adobe Illustrator 27.7.0, SVG Export Plug-In . SVG Version: 6.00 Build 0)  -->
<svg version="1.1" id="Capa_1" xmlns="http://www.w3.org/2000/svg" xmlns:xlink="http://www.w3.org/1999/xlink" x="0px" y="0px"
	 viewBox="0 0 230 187" style="enable-background:new 0 0 230 187;" xml:space="preserve">
<style type="text/css">
	.st0{fill:#8081FF;}
</style>
<path class="st0" d="M224.2,41.7L153.7,1.1c-1.2-0.7-2.6-1.1-4-1.1s-2.8,0.4-4,1.1l-31.7,18.3L82.4,1.1c-1.2-0.7-2.6-1.1-4-1.1
	s-2.8,0.4-4,1.1L4,41.7c-2.5,1.4-4,4.1-4,6.9V130c0,2.8,1.5,5.5,4,6.9l70.4,40.7c1.3,0.7,2.6,1.1,4,1.1s2.8-0.4,4-1.1l31.7-18.3
	l31.7,18.3c1.2,0.7,2.6,1.1,4,1.1s2.8-0.4,4-1.1l70.4-40.7c2.5-1.4,4-4.1,4-6.9V48.7C228.2,45.8,226.6,43.2,224.2,41.7z M214,125.8
	c0,0.4-0.2,0.7-0.5,0.9l-4.1,2.4l-8.7,5l-5.2,3l-9,5.2l-36.1,20.8c-0.3,0.2-0.7,0.2-1,0l-20.9-12.1l-4.5-2.6l-9.7-5.6l-1-0.6l-3.6-2
	l-10.6-6.2l-12.9-7.4c-0.3-0.2-0.5-0.5-0.5-0.9v-16.5h10.6c2.4,0,3.9-2.6,2.7-4.6L85.5,81.6l-4.4-7.7c-1.2-2.1-4.2-2.1-5.4,0
	l-4.4,7.7L58,104.7c-1.2,2.1,0.3,4.6,2.7,4.6h10.7V130c0,2.8,1.5,5.5,4,6.9l24.6,14.2L79,163.2c-0.3,0.2-0.7,0.2-1,0l-25.5-14.7
	l-10.6-6.2l-3.6-2l-10.6-6.2l-12.8-7.4c-0.3-0.2-0.5-0.5-0.5-0.9V52.8c0-0.4,0.2-0.7,0.5-0.9l63.2-36.5c0.3-0.2,0.7-0.2,1,0
	l20.9,12.1l14.2,8.2l28,16.2c0.3,0.2,0.5,0.5,0.5,0.9v16.5H132c-2.4,0-3.9,2.6-2.7,4.6L142.7,97l4.4,7.6c1.2,2.1,4.2,2.1,5.3,0
	l4.4-7.7l13.3-23.1c1.2-2.1-0.3-4.6-2.7-4.6h-10.6V48.7c0-2.9-1.6-5.5-4-6.9l-24.6-14.2l20.9-12.1c0.3-0.2,0.7-0.2,1,0l63.2,36.5
	c0.3,0.2,0.5,0.5,0.5,0.9V125.8z"/>
</svg>
