<?xml version="1.0" encoding="utf-8"?>
<!-- Generator: Adobe Illustrator 27.7.0, SVG Export Plug-In . SVG Version: 6.00 Build 0)  -->
<svg version="1.1" id="Capa_1" xmlns="http://www.w3.org/2000/svg" xmlns:xlink="http://www.w3.org/1999/xlink" x="0px" y="0px"
	 viewBox="0 0 751 187" style="enable-background:new 0 0 751 187;" xml:space="preserve">
<style type="text/css">
	.st0{fill:#FFFFFF;}
</style>
<path class="st0" d="M263.8,26.4h58.9v14.5h-42V61h33.9v14.7h-33.9v37.6h-16.9V26.4z"/>
<path class="st0" d="M384,113.3h-15.6v-9.4c-4,6.1-11.1,10.4-19.9,10.4c-13.5,0-22.9-8.9-22.9-22.6v-41h15.6V88
	c0,7.3,4.6,12.4,11.9,12.4c9.7,0,15.2-8.2,15.2-22.2V50.7H384L384,113.3L384,113.3z"/>
<path class="st0" d="M422.8,114.3c-12.7,0-22.1-6.8-22.1-21.5V63.9h-10.6V50.7h10.6V32.3h15.6v18.4h15.8v13.2h-15.8v27.5
	c0,6,3.2,9.2,8.1,9.2c2.4,0,5.1-0.4,7.3-1.5l1.1,13.7C429.7,113.8,426.4,114.3,422.8,114.3z"/>
<path class="st0" d="M436.9,95.8l12.8-5.2c1.9,6.3,6.7,11.5,14.5,11.5c5.8,0,9.7-3.1,9.7-7.1c0-11.8-34.2-4.1-34.2-27.8
	c0-9.8,8.6-17.5,22.2-17.5c12.2,0,22.5,6.2,25.2,15.3l-12.7,5.3c-1.7-6-7.2-9.1-12.3-9.1c-5,0-8.3,2.1-8.3,5.7
	c0,11.1,34.4,2.2,34.4,27.8c0,10.8-9.7,19.5-24.1,19.5C449.1,114.3,440,105,436.9,95.8z"/>
<path class="st0" d="M490.8,50.7h15.8l10.8,40.7L530,50.7h14.3l12.5,40.7l10.7-40.7h15.8l-19.4,62.6h-14l-12.7-40.9l-12.9,40.9
	h-13.9L490.8,50.7z"/>
<path class="st0" d="M639,75.2v38.1h-15.2v-9.1c-3.5,6.1-11.1,10.1-18.8,10.1c-12.3,0-20.9-8-20.9-18.6c0-12.3,9.3-18.9,27.9-20.9
	l11.7-1.1v-0.6c0-7.1-4.8-11.4-12.4-11.4c-6.8,0-11.7,4.2-12.4,10.9l-13.9-2.5c2-12.4,13-20.4,26.3-20.4
	C627.8,49.7,639,58.5,639,75.2z M623.9,86.2v-1.4l-11.9,1.4c-8.3,1-12.5,4.5-12.5,8.9c0,4.3,3.5,7.6,9.2,7.6
	C618.3,102.8,623.9,95.4,623.9,86.2z"/>
<path class="st0" d="M650.7,50.7h15.7v7.2c3.5-4.8,10.3-8.2,18.6-8.2c18,0,29.1,13.2,29.1,32.3c0,19.1-11.8,32.3-30.2,32.3
	c-7.2,0-13.9-2.7-17.5-7.2v28.8h-15.7V50.7L650.7,50.7z M698.5,82c0-11.3-6.6-18.8-16.5-18.8c-10.1,0-16.6,7.5-16.6,18.8
	c0,11.3,6.6,18.8,16.6,18.8C691.9,100.8,698.5,93.3,698.5,82z"/>
<path class="st0" d="M739.5,32.6c-2.8-2.8-6.6-4.4-10.5-4.4c-4,0-7.7,1.6-10.5,4.4c-2.8,2.8-4.4,6.6-4.4,10.5c0,4,1.5,7.7,4.4,10.5
	c2.8,2.8,6.5,4.4,10.5,4.4c4,0,7.7-1.6,10.5-4.4c2.8-2.8,4.4-6.6,4.4-10.5S742.3,35.4,739.5,32.6z M728.9,55.6
	c-6.9,0-12.4-5.6-12.4-12.4s5.6-12.4,12.4-12.4c6.9,0,12.4,5.6,12.4,12.4S735.8,55.6,728.9,55.6z"/>
<path class="st0" d="M732.3,43.5c1.9-0.8,2.9-2.2,2.9-4.1c0-1.4-0.6-2.6-1.9-3.4c-1.2-0.8-2.9-1.2-5-1.2c-1.4,0-3,0.2-4.8,0.5v16.2
	h2.3v-7.2h3c2.4,0,3.9,2.4,4.6,7.2h2.3c-0.4-2.5-0.9-4.3-1.4-5.4C734,44.9,733.3,44.1,732.3,43.5z M728.8,42.5h-2.9v-5.7
	c0.6-0.1,1.5-0.1,2.5-0.1c3.1,0,4.6,1,4.6,2.9C733,41.5,731.6,42.5,728.8,42.5z"/>
<path class="st0" d="M266.9,178.2v-31.5h5.5l14.4,23.2v-23.2h5v31.5h-5.5L271.9,155v23.1H266.9z M318.9,166c0,0.8,0,1.5-0.1,2h-17.3
	c0.2,1.9,0.9,3.5,2.1,4.6c1.2,1.1,2.7,1.7,4.5,1.7c1.5,0,2.7-0.3,3.7-1c1-0.7,1.6-1.6,1.9-2.9l4.6,1.2c-0.6,2.2-1.8,3.9-3.6,5.1
	c-1.8,1.2-4.1,1.8-6.8,1.8c-3.4,0-6.2-1.1-8.2-3.4c-2-2.3-3.1-5.1-3.1-8.3c0-3.2,1-6,2.9-8.3c2-2.3,4.7-3.4,8.1-3.4
	c3.5,0,6.2,1.1,8.2,3.2C317.9,160.4,318.9,163,318.9,166z M301.7,164.3h12c-0.1-1.6-0.8-2.9-1.8-3.8c-1-1-2.4-1.4-4.1-1.4
	c-1.6,0-2.9,0.5-3.9,1.4C302.8,161.3,302.1,162.6,301.7,164.3z M334,178.5c-3.4,0-6.2-1.1-8.4-3.3c-2.2-2.2-3.3-5-3.3-8.4
	s1.1-6.2,3.3-8.4c2.2-2.2,5-3.3,8.4-3.3c3.4,0,6.2,1.1,8.4,3.3c2.2,2.2,3.3,5,3.3,8.4s-1.1,6.2-3.3,8.4
	C340.1,177.4,337.3,178.5,334,178.5z M329,172.2c1.3,1.4,2.9,2.1,4.9,2.1c2,0,3.6-0.7,4.9-2.1c1.3-1.4,1.9-3.2,1.9-5.4
	s-0.6-4-1.9-5.4c-1.2-1.4-2.9-2.1-4.9-2.1c-2,0-3.6,0.7-4.9,2.1c-1.2,1.4-1.8,3.2-1.8,5.4S327.8,170.8,329,172.2z M350.4,178.2
	v-31.5H371v4.6h-15.3v7.9H368v4.6h-12.3v9.8h15.8v4.6H350.4z M394.9,178.2h-5.4l-5-7.5l-5,7.5H374l7.8-11.6l-7.4-11.1h5.4l4.8,7.1
	l4.7-7.1h5.4l-7.4,11.1L394.9,178.2z M407.6,178.5c-3.4,0-6.1-1.1-8.2-3.2c-2.1-2.2-3.1-5-3.1-8.5s1-6.3,3.1-8.5
	c2.1-2.2,4.8-3.2,8.2-3.2c2.8,0,5.1,0.7,7,2.1c1.9,1.4,3,3.2,3.4,5.6l-4.8,0.9c-0.2-1.3-0.9-2.3-1.8-3.1c-1-0.8-2.2-1.2-3.6-1.2
	c-2,0-3.5,0.7-4.7,2c-1.2,1.3-1.8,3.1-1.8,5.4s0.6,4.1,1.8,5.4c1.2,1.4,2.7,2,4.7,2c1.4,0,2.6-0.4,3.6-1.1c1-0.8,1.6-1.8,1.8-3.1
	l4.8,0.9c-0.5,2.4-1.7,4.2-3.5,5.6C412.6,177.9,410.3,178.5,407.6,178.5z M422.4,178.2v-31.9h4.9v13.1c1.6-2.8,4.1-4.3,7.4-4.3
	c2.6,0,4.6,0.8,6.2,2.2c1.6,1.5,2.3,3.4,2.3,5.9v14.9h-4.9v-13.8c0-1.5-0.5-2.7-1.4-3.6c-0.9-0.9-2.1-1.3-3.6-1.3
	c-1.9,0-3.4,0.8-4.5,2.3c-1.1,1.6-1.6,3.7-1.6,6.5v9.8H422.4z M457.6,155.1c2.9,0,5.3,0.8,7.1,2.4c1.8,1.6,2.7,3.7,2.7,6.5v14.1
	h-4.8v-3.5c-0.7,1.1-1.6,2.1-2.9,2.8c-1.3,0.7-2.7,1-4.2,1c-2.2,0-4.1-0.6-5.5-1.9c-1.4-1.3-2.1-2.9-2.1-4.8c0-4.3,3.5-6.8,10.4-7.6
	l4.3-0.4v-0.3c0-1.4-0.5-2.5-1.4-3.3c-0.9-0.8-2.1-1.2-3.6-1.2c-1.4,0-2.5,0.4-3.4,1.2c-0.9,0.8-1.4,1.8-1.6,3.2l-4.4-0.8
	c0.4-2.2,1.4-4,3.1-5.4C453.1,155.8,455.2,155.1,457.6,155.1z M456.4,174.7c1.9,0,3.4-0.6,4.5-1.8c1.1-1.2,1.6-2.7,1.7-4.6v-0.9
	l-4.3,0.5c-3.7,0.4-5.6,1.7-5.6,3.7c0,0.9,0.3,1.6,1,2.2C454.3,174.5,455.3,174.7,456.4,174.7z M473.1,178.2v-22.7h4.9v3.8
	c1.7-2.8,4.2-4.1,7.5-4.1c2.4,0,4.4,0.8,5.9,2.2c1.5,1.5,2.3,3.4,2.3,5.8v14.9h-4.9v-13.8c0-1.4-0.4-2.6-1.3-3.5
	c-0.8-0.9-2-1.3-3.4-1.3c-1.9,0-3.4,0.8-4.5,2.3c-1.1,1.5-1.6,3.7-1.6,6.4v9.9H473.1z M515.5,155.5h4.9v21.4c0,2.9-1,5.3-3.1,7.1
	c-2,1.8-4.7,2.7-7.9,2.7c-2.7,0-4.9-0.6-6.8-1.9c-1.9-1.3-3-3-3.4-5l4.6-0.8c0.1,1.1,0.7,2,1.8,2.7c1.1,0.7,2.4,1,3.9,1
	c1.8,0,3.3-0.5,4.5-1.5c1.1-1,1.7-2.3,1.7-3.8v-2.7c-0.6,0.9-1.5,1.6-2.7,2.1c-1.2,0.5-2.6,0.8-4,0.8c-3.3,0-5.9-1-7.8-3.1
	c-1.9-2.1-2.8-4.8-2.8-8.1s0.9-6.1,2.8-8.1c1.9-2.1,4.5-3.1,7.7-3.1c1.4,0,2.7,0.3,4,0.8c1.2,0.5,2.2,1.3,2.8,2.2V155.5z
	 M504.9,171.4c1.2,1.3,2.7,1.9,4.6,1.9c1.9,0,3.4-0.6,4.6-1.9c1.2-1.3,1.8-2.9,1.8-5c0-2.1-0.6-3.8-1.8-5c-1.1-1.3-2.7-1.9-4.6-1.9
	c-1.9,0-3.5,0.6-4.6,1.9c-1.2,1.3-1.8,2.9-1.8,5C503.1,168.4,503.7,170.1,504.9,171.4z M547.2,166c0,0.8,0,1.5-0.1,2h-17.3
	c0.2,1.9,0.9,3.5,2.1,4.6c1.2,1.1,2.7,1.7,4.5,1.7c1.5,0,2.7-0.3,3.7-1c1-0.7,1.6-1.6,1.9-2.9l4.6,1.2c-0.6,2.2-1.8,3.9-3.6,5.1
	c-1.8,1.2-4.1,1.8-6.8,1.8c-3.4,0-6.2-1.1-8.2-3.4c-2-2.3-3.1-5.1-3.1-8.3c0-3.2,1-6,2.9-8.3c2-2.3,4.7-3.4,8.1-3.4
	c3.5,0,6.2,1.1,8.2,3.2C546.2,160.4,547.2,163,547.2,166z M530,164.3h12c-0.2-1.6-0.8-2.9-1.8-3.8c-1-1-2.4-1.4-4.1-1.4
	c-1.6,0-2.9,0.5-3.9,1.4C531,161.3,530.3,162.6,530,164.3z"/>
<path class="st0" d="M224.2,41.7L153.7,1.1c-1.2-0.7-2.6-1.1-4-1.1s-2.8,0.4-4,1.1l-31.7,18.3L82.4,1.1c-1.2-0.7-2.6-1.1-4-1.1
	s-2.8,0.4-4,1.1L4,41.7c-2.5,1.4-4,4.1-4,6.9V130c0,2.8,1.5,5.5,4,6.9l70.4,40.7c1.3,0.7,2.6,1.1,4,1.1s2.8-0.4,4-1.1l31.7-18.3
	l31.7,18.3c1.2,0.7,2.6,1.1,4,1.1s2.8-0.4,4-1.1l70.4-40.7c2.5-1.4,4-4.1,4-6.9V48.7C228.2,45.8,226.6,43.2,224.2,41.7z M214,125.8
	c0,0.4-0.2,0.7-0.5,0.9l-4.1,2.4l-8.7,5l-5.2,3l-9,5.2l-36.1,20.8c-0.3,0.2-0.7,0.2-1,0l-20.9-12.1l-4.5-2.6l-9.7-5.6l-1-0.6l-3.6-2
	l-10.6-6.2l-12.9-7.4c-0.3-0.2-0.5-0.5-0.5-0.9v-16.5h10.6c2.4,0,3.9-2.6,2.7-4.6L85.5,81.6l-4.4-7.7c-1.2-2.1-4.2-2.1-5.4,0
	l-4.4,7.7L58,104.7c-1.2,2.1,0.3,4.6,2.7,4.6h10.7V130c0,2.8,1.5,5.5,4,6.9l24.6,14.2L79,163.2c-0.3,0.2-0.7,0.2-1,0l-25.5-14.7
	l-10.6-6.2l-3.6-2l-10.6-6.2l-12.8-7.4c-0.3-0.2-0.5-0.5-0.5-0.9V52.8c0-0.4,0.2-0.7,0.5-0.9l63.2-36.5c0.3-0.2,0.7-0.2,1,0
	l20.9,12.1l14.2,8.2l28,16.2c0.3,0.2,0.5,0.5,0.5,0.9v16.5H132c-2.4,0-3.9,2.6-2.7,4.6L142.7,97l4.4,7.6c1.2,2.1,4.2,2.1,5.3,0
	l4.4-7.7l13.3-23.1c1.2-2.1-0.3-4.6-2.7-4.6h-10.6V48.7c0-2.9-1.6-5.5-4-6.9l-24.6-14.2l20.9-12.1c0.3-0.2,0.7-0.2,1,0l63.2,36.5
	c0.3,0.2,0.5,0.5,0.5,0.9V125.8z"/>
</svg>
