<svg xmlns="http://www.w3.org/2000/svg" width="847" height="187" viewBox="0 0 847 187" fill="none"><path d="M263.768 26.3768H322.641V40.9067H280.659V61.0304H314.568V75.6883H280.659V113.324H263.768V26.3768Z" fill="#141240"/><path d="M384.009 113.323H368.36V103.885C364.383 109.971 357.305 114.319 348.483 114.319C334.944 114.319 325.629 105.378 325.629 91.7108V50.7237H341.277V87.9847C341.277 95.3136 345.871 100.405 353.2 100.405C362.89 100.405 368.355 92.2085 368.355 78.1717V50.719H384.004V113.323H384.009Z" fill="#141240"/><path d="M422.763 114.315C410.092 114.315 400.653 107.484 400.653 92.8258V63.8846H390.096V50.72H400.653V32.3361H416.302V50.72H432.078V63.8846H416.302V91.3373C416.302 97.3009 419.535 100.529 424.375 100.529C426.736 100.529 429.466 100.155 431.704 99.0407L432.823 112.703C429.718 113.822 426.366 114.315 422.763 114.315Z" fill="#141240"/><path d="M436.918 95.8073L449.708 90.5927C451.571 96.9261 456.416 102.141 464.243 102.141C470.083 102.141 473.933 99.0356 473.933 95.063C473.933 83.2637 439.777 90.9624 439.777 67.2406C439.777 57.4276 448.348 49.7289 462.01 49.7289C474.184 49.7289 484.49 55.939 487.225 65.0078L474.554 70.3504C472.814 64.3868 467.348 61.2864 462.257 61.2864C457.289 61.2864 453.932 63.396 453.932 66.9988C453.932 78.0538 488.339 69.2364 488.339 94.8213C488.339 105.63 478.654 114.324 464.243 114.324C449.092 114.315 440.023 104.999 436.918 95.8073Z" fill="#141240"/><path d="M490.837 50.719H506.613L517.417 91.4595L529.961 50.719H544.244L556.792 91.4595L567.473 50.719H583.25L563.875 113.323H549.838L537.171 72.4593L524.253 113.323H510.344L490.837 50.719Z" fill="#141240"/><path d="M639.021 75.1905V113.324H623.865V104.255C620.39 110.342 612.81 114.315 605.111 114.315C592.814 114.315 584.243 106.365 584.243 95.684C584.243 83.387 593.558 76.8071 612.189 74.816L623.865 73.6973V73.0762C623.865 65.9986 619.02 61.6514 611.445 61.6514C604.613 61.6514 599.769 65.8753 599.024 72.5832L585.111 70.0991C587.097 57.6788 598.152 49.7289 611.445 49.7289C627.842 49.7241 639.021 58.5464 639.021 75.1905ZM623.865 86.2456V84.8803L611.942 86.2456C603.618 87.2411 599.394 90.7159 599.394 95.191C599.394 99.5381 602.874 102.766 608.586 102.766C618.276 102.762 623.865 95.4375 623.865 86.2456Z" fill="#141240"/><path d="M650.7 50.7197H666.354V57.9253C669.833 53.0805 676.66 49.7289 684.984 49.7289C702.998 49.7289 714.049 62.8935 714.049 82.0217C714.049 101.15 702.249 114.314 683.866 114.314C676.66 114.314 669.957 111.584 666.354 107.109V135.927H650.7V50.7197V50.7197ZM698.523 82.0217C698.523 70.7202 691.939 63.2632 682.002 63.2632C671.943 63.2632 665.358 70.7154 665.358 82.0217C665.358 93.3232 671.943 100.775 682.002 100.775C691.939 100.775 698.523 93.3232 698.523 82.0217Z" fill="#141240"/><path d="M739.465 32.5861C736.654 29.7752 732.915 28.225 728.929 28.225C724.942 28.225 721.212 29.7752 718.392 32.5861C715.581 35.3969 714.031 39.1362 714.031 43.1225C714.031 47.1003 715.581 50.8396 718.392 53.659C721.203 56.4698 724.942 58.0201 728.929 58.0201C732.915 58.0201 736.646 56.4698 739.465 53.659C742.276 50.8481 743.826 47.1088 743.826 43.1225C743.826 39.1362 742.276 35.3969 739.465 32.5861ZM728.929 55.5584C722.063 55.5584 716.484 49.9793 716.484 43.114C716.484 36.2487 722.063 30.6696 728.929 30.6696C735.794 30.6696 741.373 36.2487 741.373 43.114C741.373 49.9793 735.794 55.5584 728.929 55.5584Z" fill="#141240"/><path d="M732.347 43.4964C734.281 42.6617 735.252 41.2989 735.252 39.4079C735.252 37.9769 734.63 36.8441 733.395 36.0093C732.151 35.1746 730.482 34.7657 728.369 34.7657C726.956 34.7657 725.354 34.9191 723.574 35.2172V51.435H725.916V44.263H728.889C731.291 44.263 732.833 46.6565 733.506 51.435H735.848C735.448 48.9393 734.996 47.142 734.494 46.0262C733.974 44.9189 733.267 44.0756 732.347 43.4964ZM728.778 42.4573H725.916V36.7759C726.564 36.7078 727.381 36.6737 728.369 36.6737C731.444 36.6737 732.986 37.6362 732.986 39.5527C732.978 41.4862 731.581 42.4573 728.778 42.4573Z" fill="#141240"/><path d="M266.873 178.159V146.659H272.408L286.853 169.834V146.659H291.893V178.159H286.358L271.868 155.029V178.159H266.873ZM318.908 165.964C318.908 166.774 318.878 167.449 318.818 167.989H301.493C301.703 169.939 302.393 171.484 303.563 172.624C304.763 173.764 306.263 174.334 308.063 174.334C309.563 174.334 310.808 174.004 311.798 173.344C312.788 172.654 313.433 171.694 313.733 170.464L318.368 171.634C317.768 173.824 316.553 175.519 314.723 176.719C312.893 177.919 310.643 178.519 307.973 178.519C304.523 178.519 301.778 177.379 299.738 175.099C297.698 172.789 296.678 170.029 296.678 166.819C296.678 163.579 297.653 160.819 299.603 158.539C301.583 156.259 304.298 155.119 307.748 155.119C311.228 155.119 313.958 156.184 315.938 158.314C317.918 160.444 318.908 162.994 318.908 165.964ZM301.718 164.254H313.688C313.538 162.664 312.938 161.389 311.888 160.429C310.868 159.469 309.488 158.989 307.748 158.989C306.188 158.989 304.883 159.454 303.833 160.384C302.783 161.284 302.078 162.574 301.718 164.254ZM333.954 178.519C330.534 178.519 327.729 177.424 325.539 175.234C323.349 173.014 322.254 170.209 322.254 166.819C322.254 163.429 323.349 160.639 325.539 158.449C327.729 156.229 330.534 155.119 333.954 155.119C337.344 155.119 340.134 156.229 342.324 158.449C344.544 160.639 345.654 163.429 345.654 166.819C345.654 170.209 344.544 173.014 342.324 175.234C340.134 177.424 337.344 178.519 333.954 178.519ZM329.049 172.174C330.309 173.554 331.944 174.244 333.954 174.244C335.964 174.244 337.584 173.554 338.814 172.174C340.074 170.794 340.704 169.009 340.704 166.819C340.704 164.629 340.074 162.844 338.814 161.464C337.584 160.084 335.964 159.394 333.954 159.394C331.944 159.394 330.309 160.084 329.049 161.464C327.819 162.844 327.204 164.629 327.204 166.819C327.204 169.009 327.819 170.794 329.049 172.174ZM350.413 178.159V146.659H370.978V151.249H355.678V159.169H368.008V163.759H355.678V173.524H371.473V178.159H350.413ZM394.927 178.159H389.482L384.487 170.644L379.447 178.159H374.002L381.787 166.594L374.362 155.479H379.717L384.487 162.544L389.212 155.479H394.567L387.142 166.594L394.927 178.159ZM407.555 178.519C404.165 178.519 401.42 177.439 399.32 175.279C397.22 173.119 396.17 170.299 396.17 166.819C396.17 163.339 397.22 160.519 399.32 158.359C401.42 156.199 404.165 155.119 407.555 155.119C410.345 155.119 412.67 155.809 414.53 157.189C416.39 158.569 417.515 160.429 417.905 162.769L413.135 163.714C412.895 162.424 412.28 161.389 411.29 160.609C410.33 159.799 409.13 159.394 407.69 159.394C405.74 159.394 404.18 160.069 403.01 161.419C401.84 162.769 401.255 164.569 401.255 166.819C401.255 169.069 401.84 170.869 403.01 172.219C404.18 173.569 405.74 174.244 407.69 174.244C409.13 174.244 410.33 173.869 411.29 173.119C412.25 172.369 412.865 171.334 413.135 170.014L417.95 170.959C417.47 173.329 416.3 175.189 414.44 176.539C412.61 177.859 410.315 178.519 407.555 178.519ZM422.39 178.159V146.299H427.295V159.394C428.885 156.544 431.36 155.119 434.72 155.119C437.3 155.119 439.355 155.869 440.885 157.369C442.445 158.839 443.225 160.804 443.225 163.264V178.159H438.32V164.389C438.32 162.889 437.87 161.704 436.97 160.834C436.1 159.964 434.9 159.529 433.37 159.529C431.48 159.529 429.995 160.309 428.915 161.869C427.835 163.429 427.295 165.589 427.295 168.349V178.159H422.39ZM457.617 155.119C460.557 155.119 462.912 155.914 464.682 157.504C466.452 159.064 467.337 161.239 467.337 164.029V178.159H462.522V174.694C461.862 175.834 460.887 176.764 459.597 177.484C458.307 178.174 456.912 178.519 455.412 178.519C453.162 178.519 451.332 177.889 449.922 176.629C448.512 175.369 447.807 173.764 447.807 171.814C447.807 167.494 451.287 164.974 458.247 164.254L462.522 163.804V163.489C462.522 162.109 462.072 161.014 461.172 160.204C460.302 159.394 459.117 158.989 457.617 158.989C456.237 158.989 455.097 159.379 454.197 160.159C453.297 160.909 452.772 161.959 452.622 163.309L448.212 162.499C448.572 160.279 449.622 158.494 451.362 157.144C453.102 155.794 455.187 155.119 457.617 155.119ZM456.402 174.739C458.292 174.739 459.777 174.154 460.857 172.984C461.937 171.814 462.492 170.284 462.522 168.394V167.449L458.202 167.944C454.482 168.364 452.622 169.609 452.622 171.679C452.622 172.579 452.967 173.314 453.657 173.884C454.347 174.454 455.262 174.739 456.402 174.739ZM473.103 178.159V155.479H478.008V159.259C479.748 156.499 482.238 155.119 485.478 155.119C487.908 155.119 489.873 155.869 491.373 157.369C492.903 158.839 493.668 160.789 493.668 163.219V178.159H488.763V164.344C488.763 162.904 488.343 161.749 487.503 160.879C486.663 159.979 485.538 159.529 484.128 159.529C482.208 159.529 480.708 160.294 479.628 161.824C478.548 163.354 478.008 165.484 478.008 168.214V178.159H473.103ZM515.536 155.479H520.396V176.899C520.396 179.809 519.376 182.164 517.336 183.964C515.326 185.794 512.686 186.709 509.416 186.709C506.746 186.709 504.466 186.064 502.576 184.774C500.686 183.484 499.561 181.804 499.201 179.734L503.791 178.969C503.911 180.079 504.496 180.979 505.546 181.669C506.626 182.359 507.916 182.704 509.416 182.704C511.246 182.704 512.731 182.209 513.871 181.219C515.011 180.229 515.581 178.954 515.581 177.394V174.649C515.011 175.519 514.111 176.224 512.881 176.764C511.651 177.274 510.301 177.529 508.831 177.529C505.531 177.529 502.936 176.509 501.046 174.469C499.156 172.399 498.211 169.684 498.211 166.324C498.211 162.964 499.141 160.264 501.001 158.224C502.891 156.154 505.471 155.119 508.741 155.119C510.151 155.119 511.471 155.389 512.701 155.929C513.931 156.469 514.876 157.189 515.536 158.089V155.479ZM504.871 171.364C506.041 172.624 507.586 173.254 509.506 173.254C511.426 173.254 512.956 172.624 514.096 171.364C515.266 170.104 515.851 168.424 515.851 166.324C515.851 164.224 515.266 162.544 514.096 161.284C512.956 160.024 511.426 159.394 509.506 159.394C507.586 159.394 506.041 160.024 504.871 161.284C503.701 162.544 503.116 164.224 503.116 166.324C503.116 168.424 503.701 170.104 504.871 171.364ZM547.16 165.964C547.16 166.774 547.13 167.449 547.07 167.989H529.745C529.955 169.939 530.645 171.484 531.815 172.624C533.015 173.764 534.515 174.334 536.315 174.334C537.815 174.334 539.06 174.004 540.05 173.344C541.04 172.654 541.685 171.694 541.985 170.464L546.62 171.634C546.02 173.824 544.805 175.519 542.975 176.719C541.145 177.919 538.895 178.519 536.225 178.519C532.775 178.519 530.03 177.379 527.99 175.099C525.95 172.789 524.93 170.029 524.93 166.819C524.93 163.579 525.905 160.819 527.855 158.539C529.835 156.259 532.55 155.119 536 155.119C539.48 155.119 542.21 156.184 544.19 158.314C546.17 160.444 547.16 162.994 547.16 165.964ZM529.97 164.254H541.94C541.79 162.664 541.19 161.389 540.14 160.429C539.12 159.469 537.74 158.989 536 158.989C534.44 158.989 533.135 159.454 532.085 160.384C531.035 161.284 530.33 162.574 529.97 164.254Z" fill="#141240"/><path d="M224.173 41.7248L153.747 1.08363C152.514 0.357897 151.132 0 149.75 0C148.368 0 146.986 0.357897 145.744 1.08363L114.08 19.3563L82.4158 1.08363C81.1929 0.357897 79.8111 0 78.4292 0C77.0473 0 75.6555 0.357897 74.4227 1.08363L4.0164 41.7248C1.531 43.1664 0 45.8108 0 48.6641V129.986C0 132.83 1.531 135.484 4.0164 136.906L74.4227 177.567C75.6754 178.273 77.0473 178.63 78.4292 178.63C79.8111 178.63 81.1929 178.273 82.4158 177.567L114.08 159.294L145.744 177.567C146.976 178.273 148.368 178.63 149.75 178.63C151.132 178.63 152.514 178.273 153.747 177.567L224.173 136.906C226.628 135.484 228.159 132.83 228.159 129.986V48.6641C228.159 45.8108 226.628 43.1664 224.173 41.7248ZM213.973 125.781C213.973 126.159 213.764 126.497 213.426 126.686L209.29 129.062L200.581 134.102L195.422 137.085L186.375 142.324L150.277 163.151C149.959 163.34 149.561 163.34 149.233 163.151L128.286 151.072L123.763 148.458L114.1 142.881L113.115 142.304L109.546 140.256L98.9089 134.102L86.0544 126.686C85.7164 126.497 85.5374 126.159 85.5374 125.781V109.318H96.1849C98.551 109.318 100.042 106.753 98.8492 104.675L85.5374 81.6105L81.1134 73.9455C79.9204 71.8777 76.9379 71.8777 75.745 73.9455L71.3309 81.6105L58.0092 104.675C56.8162 106.753 58.2875 109.318 60.6735 109.318H71.3309V129.986C71.3309 132.83 72.852 135.484 75.3175 136.906L99.8732 151.092L78.9561 163.151C78.638 163.34 78.2403 163.34 77.9122 163.151L52.4319 148.458L41.7944 142.304L38.2254 140.256L27.578 134.102L14.7334 126.686C14.3954 126.497 14.2065 126.159 14.2065 125.781V52.8395C14.2065 52.4717 14.3954 52.1337 14.7334 51.9448L77.9122 15.4791C78.2403 15.2902 78.638 15.2902 78.9561 15.4791L99.8732 27.5581L114.1 35.7599L142.125 51.9448C142.443 52.1337 142.652 52.4717 142.652 52.8395V69.3028H132.004C129.618 69.3028 128.137 71.8777 129.32 73.9455L142.652 97.0299L147.066 104.675C148.259 106.753 151.241 106.753 152.414 104.675L156.858 97.0001L170.17 73.9455C171.363 71.8777 169.872 69.3028 167.506 69.3028H156.858V48.6641C156.858 45.8108 155.307 43.1664 152.852 41.7248L128.296 27.5581L149.233 15.4791C149.561 15.2902 149.959 15.2902 150.277 15.4791L213.446 51.9448C213.764 52.1337 213.973 52.4717 213.973 52.8395V125.781Z" fill="#8081FF"/></svg>